
<svg width="20px" height="12px" viewBox="0 0 20 12" version="1.1" xmlns="http://www.w3.org/2000/svg" xmlns:xlink="http://www.w3.org/1999/xlink">
    <g id="Page-1" stroke="none" stroke-width="1" fill="none" fill-rule="evenodd">
        <g id="Karten" transform="translate(-223.000000, -69.000000)" fill="#22A8F8">
            <g id="Group-2" transform="translate(131.000000, 61.000000)">
                <path d="M102.267578,19.1523438 C101.891602,19.1523438 101.580078,19.0019531 101.279297,18.7011719 L93.1152344,10.34375 C92.8789062,10.1074219 92.7392578,9.80664062 92.7392578,9.45214844 C92.7392578,8.74316406 93.2978516,8.17382812 94.0175781,8.17382812 C94.3720703,8.17382812 94.6835938,8.32421875 94.9306641,8.56054688 L102.27832,16.0908203 L109.604492,8.56054688 C109.862305,8.31347656 110.18457,8.17382812 110.52832,8.17382812 C111.237305,8.17382812 111.795898,8.74316406 111.795898,9.45214844 C111.795898,9.80664062 111.677734,10.1074219 111.430664,10.34375 L103.266602,18.7011719 C102.987305,19.0019531 102.654297,19.1416016 102.267578,19.1523438 Z" id="􀆈"></path>
            </g>
        </g>
    </g>
</svg>