
<svg width="14px" height="24px" viewBox="0 0 14 24" version="1.1" xmlns="http://www.w3.org/2000/svg" xmlns:xlink="http://www.w3.org/1999/xlink">
    <g id="Page-1" stroke="none" stroke-width="1" fill="none" fill-rule="evenodd">
        <g id="Lektionen" transform="translate(-8.000000, -54.000000)" fill="#4299e1">
            <path d="M19.7246094,77.6269531 L8.89648438,67.0449219 C8.63671875,66.7851562 8.48632812,66.4707031 8.48632812,66.1289062 C8.48632812,65.7734375 8.63671875,65.4316406 8.89648438,65.2128906 L19.7246094,54.6171875 C19.9570312,54.3847656 20.2578125,54.2480469 20.6132812,54.2480469 C21.3242188,54.2480469 21.8574219,54.7949219 21.8574219,55.5058594 C21.8574219,55.8339844 21.7207031,56.1621094 21.5019531,56.3945312 L11.5488281,66.1289062 L21.5019531,75.8632812 C21.7207031,76.0957031 21.8574219,76.4101562 21.8574219,76.7519531 C21.8574219,77.4628906 21.3242188,77.9960938 20.6132812,77.9960938 C20.2578125,77.9960938 19.9570312,77.859375 19.7246094,77.6269531 Z" id="􀆉"></path>
        </g>
    </g>
</svg>