
<svg width="19px" height="19px" viewBox="0 0 19 19" version="1.1" xmlns="http://www.w3.org/2000/svg" xmlns:xlink="http://www.w3.org/1999/xlink">
    <g id="Page-1" stroke="none" stroke-width="1" fill="none" fill-rule="evenodd">
        <g id="Karten-Copy-2" transform="translate(-29.000000, -60.000000)" fill="#3D3D3D">
            <path d="M29.8417969,76.15625 L36.8417969,69.1425781 L29.8417969,62.1425781 C29.3769531,61.6777344 29.3632812,60.8710938 29.8417969,60.40625 C30.3066406,59.9277344 31.0996094,59.9414062 31.578125,60.40625 L38.578125,67.4199219 L45.5917969,60.40625 C46.0566406,59.9414062 46.8496094,59.9277344 47.3144531,60.40625 C47.8066406,60.8710938 47.7929688,61.6777344 47.3144531,62.1425781 L40.3144531,69.1425781 L47.3144531,76.15625 C47.7929688,76.6210938 47.8066406,77.4140625 47.3144531,77.8925781 C46.8496094,78.3710938 46.0566406,78.3574219 45.5917969,77.8925781 L38.578125,70.8789062 L31.578125,77.8925781 C31.0996094,78.3574219 30.3066406,78.3710938 29.8417969,77.8925781 C29.3632812,77.4140625 29.3769531,76.6210938 29.8417969,76.15625 Z" id="􀆄"></path>
        </g>
    </g>
</svg>